<svg width="76" height="76" xmlns="http://www.w3.org/2000/svg" xmlns:xlink="http://www.w3.org/1999/xlink" overflow="hidden"><defs><clipPath id="clip0"><rect x="0" y="0" width="76" height="76"/></clipPath></defs><g clip-path="url(#clip0)"><path d="M55.5655 47.1121C51.053 45.9634 47.1651 43.2329 42.4009 37.7087L42.2425 37.521 42.3922 37.3485C46.9949 32.038 51.0229 28.5 55.7112 28.5 58.607 28.4962 61.3366 29.8526 63.0824 32.163L58.4448 34.8405 70.2359 38 73.3954 26.2042 68.5853 28.9813C65.689 24.716 60.8669 22.1635 55.7112 22.1667 48.0542 22.1667 42.4547 27.6062 37.6042 33.1993 32.7505 27.6007 27.1542 22.1667 19.4972 22.1667 10.985 22.1056 4.03515 28.9566 3.97414 37.4688 3.91314 45.9809 10.7641 52.9308 19.2762 52.9918 19.3499 52.9923 19.4235 52.9923 19.4972 52.9918 27.1288 52.9918 32.5407 47.7035 37.6042 41.8435 42.6257 47.667 48.0787 52.3727 55.7112 52.9918 64.2825 53.6853 70.3443 46.9268 70.4005 41.7865 70.4005 41.7804 70.3954 41.7755 70.3893 41.7756 70.3849 41.7757 70.3808 41.7784 70.3792 41.7826 69.1624 45.4813 61.7635 48.6875 55.5655 47.1121ZM32.8122 37.7023C27.9102 43.3746 24.1601 46.6585 19.4972 46.6585 14.4828 46.7395 10.3522 42.7404 10.2711 37.7261 10.19 32.7117 14.1891 28.5811 19.2035 28.5 19.3014 28.4984 19.3992 28.4984 19.4972 28.5 24.1878 28.5 28.215 32.0372 32.8185 37.3485L32.969 37.521Z" fill="#FFFFFF"/></g></svg>